<?xml version="1.0" standalone="no"?>
<!DOCTYPE svg PUBLIC "-//W3C//DTD SVG 20010904//EN"
 "http://www.w3.org/TR/2001/REC-SVG-20010904/DTD/svg10.dtd">
<svg version="1.0" xmlns="http://www.w3.org/2000/svg"
 width="100.000000pt" height="100.000000pt" viewBox="0 0 100.000000 100.000000"
 preserveAspectRatio="xMidYMid meet">
<metadata>
Created by potrace 1.11, written by Peter Selinger 2001-2013
</metadata>
<g transform="translate(0.000000,100.000000) scale(0.100000,-0.100000)"
fill="#000000" stroke="none">
<path d="M417 960 c-20 -5 -59 -21 -86 -35 -27 -13 -68 -27 -91 -31 -33 -5
-40 -10 -34 -23 40 -89 -21 -190 -116 -193 -34 -1 -34 -1 -20 -48 6 -19 12
-71 15 -115 14 -210 26 -253 97 -330 28 -31 78 -71 112 -89 72 -41 183 -83
211 -80 70 5 236 88 299 150 79 77 102 144 111 325 3 53 9 109 15 124 18 46
13 61 -21 63 -93 7 -143 87 -115 183 7 24 5 27 -27 32 -19 3 -67 20 -107 37
-78 34 -176 46 -243 30z m214 -84 c30 -14 61 -27 70 -30 11 -3 18 -22 23 -63
8 -69 48 -126 104 -150 l34 -14 -7 -87 c-13 -187 -22 -226 -64 -282 -41 -55
-70 -77 -160 -123 -110 -55 -148 -55 -255 -3 -118 57 -189 130 -209 217 -4 14
-9 59 -12 100 -3 41 -8 97 -11 126 -5 46 -3 52 16 58 64 20 122 106 124 183 1
17 3 31 6 31 3 -1 25 8 50 21 109 56 195 61 291 16z"/>
<path d="M486 825 c-5 -20 -13 -25 -39 -25 l-32 -1 27 -20 c23 -17 26 -24 17
-41 -14 -27 -3 -35 19 -15 16 15 21 15 38 2 28 -21 35 -18 23 12 -9 25 0 42
24 43 4 0 7 5 7 10 0 6 -11 10 -25 10 -18 0 -28 7 -35 25 -5 14 -11 25 -14 25
-2 0 -7 -11 -10 -25z"/>
<path d="M347 621 c-76 -38 -69 -100 21 -186 49 -48 65 -69 65 -90 0 -73 -112
-75 -129 -3 l-8 33 -6 -30 c-9 -45 3 -69 39 -76 78 -16 153 30 153 94 0 47
-26 90 -79 127 -50 36 -67 63 -58 90 13 42 100 38 111 -6 8 -31 16 -25 19 16
1 17 -2 33 -9 36 -34 12 -90 10 -119 -5z"/>
<path d="M506 620 c12 -4 23 -14 26 -22 2 -7 4 -78 4 -156 -1 -124 -4 -146
-19 -156 -14 -11 -5 -13 55 -13 54 0 66 2 52 10 -11 6 -22 14 -25 19 -3 4 -5
75 -5 156 1 144 1 147 23 150 34 5 73 -39 73 -83 0 -37 -41 -92 -59 -80 -5 3
-12 1 -16 -5 -9 -15 33 -12 70 5 47 23 72 84 54 132 -14 37 -66 53 -166 52
-59 0 -81 -3 -67 -9z"/>
</g>
</svg>
